# AST/ASF file generated using VICON BodyLanguage
# -----------------------------------------------
:version 1.10
:name VICON
:units
  mass 1.0
  length 0.45
  angle deg
:documentation
   .ast/.asf automatically generated from VICON data using
   VICON BodyBuilder and BodyLanguage model FoxedUp or BRILLIANT.MOD
:root
   order TX TY TZ RX RY RZ
   axis XYZ
   position 0 0 0  
   orientation 0 0 0 
:bonedata
  begin
     id 1 
     name lhipjoint
     direction 0.610259 -0.730986 0.305356 
     length 2.50941 
     axis 0 0 0  XYZ
  end
  begin
     id 2 
     name lfemur
     direction 0.34202 -0.939693 0  
     length 7.48822  
     axis 0 0 20  XYZ
    dof rx ry rz
    limits (-160.0 20.0)
           (-70.0 70.0)
           (-60.0 70.0)
  end
  begin
     id 3 
     name ltibia
     direction 0.34202 -0.939693 0   
     length 7.60141   
     axis 0 0 20   XYZ
    dof rx
    limits (-10.0 170.0)
  end
  begin
     id 4 
     name lfoot
     direction 0.0673488 -0.185039 0.980421   
     length 2.04049   
     axis -90 7.62852e-016 20   XYZ
    dof rx rz
    limits (-45.0 90.0)
           (-70.0 20.0)
  end
  begin
     id 5 
     name ltoes
     direction 1.5356e-011 -4.21729e-011 1   
     length 1.02897   
     axis -90 7.62852e-016 20   XYZ
    dof rx
    limits (-90.0 20.0)
  end
  begin
     id 6 
     name rhipjoint
     direction -0.57612 -0.754205 0.315056   
     length 2.43216  
     axis 0 0 0  XYZ 
  end
  begin
     id 7 
     name rfemur
     direction -0.34202 -0.939693 0   
     length 7.42799   
     axis 0 0 -20   XYZ
    dof rx ry rz
    limits (-160.0 20.0)
           (-70.0 70.0)
           (-70.0 60.0)
  end
  begin
     id 8 
     name rtibia
     direction -0.34202 -0.939693 0   
     length 7.69484   
     axis 0 0 -20   XYZ
    dof rx
    limits (-10.0 170.0)
 end
 begin
     id 9 
     name rfoot
     direction -0.111837 -0.30727 0.945028   
     length 2.15769  
     axis -90 -7.62852e-016 -20   XYZ
    dof rx rz
    limits (-45.0 90.0)
           (-20.0 70.0)
  end
  begin
     id 10 
     name rtoes
     direction -1.53539e-011 -4.21878e-011 1   
     length 1.07391   
     axis -90 -7.62852e-016 -20   XYZ
    dof rx
    limits (-90.0 20.0)
  end
  begin
     id 11 
     name lowerback
     direction 0.00552624 0.990109 -0.140195   
     length 2.12403   
     axis 0 0 0   XYZ
    dof rx ry rz
    limits (-20.0 45.0)
           (-30.0 30.0)
           (-30.0 30.0)
  end
  begin
     id 12 
     name upperback
     direction 0.00361898 0.999976 -0.00584723   
     length 2.13232   
     axis 0 0 0   XYZ
    dof rx ry rz
    limits (-20.0 45.0)
           (-30.0 30.0)
           (-30.0 30.0)
  end
  begin
     id 13 
     name thorax
     direction -0.000331275 0.998253 0.0590847   
     length 2.17688   
     axis 0 0 0   XYZ
    dof rx ry rz
    limits (-20.0 45.0)
           (-30.0 30.0)
           (-30.0 30.0)
  end
  begin
     id 14 
     name lowerneck
     direction -0.0561561 0.979832 0.19177   
     length 1.64159   
     axis 0 0 0   XYZ
    dof rx ry rz
    limits (-20.0 45.0)
           (-30.0 30.0)
           (-30.0 30.0)
  end
  begin
     id 15 
     name upperneck
     direction 0.0827153 0.979385 -0.184293   
     length 1.68939   
     axis 0 0 0   XYZ
    dof rx ry rz
    limits (-20.0 45.0)
           (-30.0 30.0)
           (-30.0 30.0)
  end
  begin
     id 16
     name head
     direction 0.0278583 0.995936 -0.0856488  
     length 1.70207  
     axis 0 0 0   XYZ
    dof rx ry rz
    limits (-20.0 45.0)
           (-30.0 30.0)
           (-30.0 30.0)
  end
  begin
     id 17 
     name lclavicle
     direction 0.950993 0.301131 -0.0702275  
     length 3.41652  
     axis 0 0 0   XYZ
    dof ry rz
    limits (-20.0 10.0)
           (0.0 20.0)
  end
  begin
     id 18 
     name lhumerus
     direction 1 -4.48981e-011 -3.9662e-029   
     length 5.32955   
     axis 180 -30 -90   XYZ
    dof rx ry rz
    limits (-60.0 90.0)
           (-90.0 90.0)
           (-90.0 90.0)
  end
  begin
     id 19
     name lradius
     direction 1 -4.48925e-011 -9.0549e-027   
     length 3.69232   
     axis 180 -30 -90   XYZ
    dof rx
    limits (-10.0 170.0)
  end
  begin
     id 20
     name lwrist
     direction 1 -4.49007e-011 -1.49005e-026   
     length 1.84616   
     axis 9.0955e-015 90 90   XYZ
    dof ry
    limits (-180.0 0.0)
 end
  begin
     id 21 
     name lhand
     direction 1 -4.49016e-011 -2.98023e-026   
     length 0.536598   
     axis 1.90115e-014 90 90   XYZ
    dof rx rz
    limits (-90.0 90.0)
           (-45.0 45.0)
  end
  begin
     id 22 
     name lfingers
     direction 1 -4.48924e-011 -5.9578e-026   
     length 0.432619   
     axis 3.80223e-014 90 90   XYZ
    dof rx
    limits (0.0 90.0)
  end
  begin
     id 23
     name lthumb
     direction 0.707107 -6.34947e-011 0.707107   
     length 0.621157   
     axis -90 45 -3.84942e-014   XYZ
    dof rx rz
    limits (-45.0 45.0)
           (-45.0 45.0)
  end
  begin
     id 24 
     name rclavicle
     direction -0.955495 0.276497 -0.102848   
     length 3.36357  
     axis 0 0 0   XYZ 
    dof ry rz
    limits (-10.0 20.0)
           (-20.0 0.0)
  end
  begin
     id 25 
     name rhumerus
     direction -1 -4.48961e-011 3.30983e-027  
     length 5.23431   
     axis 180 30 90   XYZ
    dof rx ry rz
    limits (-90.0 60.0)
           (-90.0 90.0)
           (-90.0 90.0)
  end
  begin
     id 26 
     name rradius
     direction -1 -4.48965e-011 -6.63263e-027   
     length 3.55301   
     axis 180 30 90   XYZ
    dof rx
    limits (-10.0 170.0)
  end
  begin
     id 27 
     name rwrist
     direction -1 -4.48942e-011 -1.48958e-026   
     length 1.77651   
     axis 9.0955e-015 -90 -90   XYZ
    dof ry
    limits (-180.0 0.0)
  end
  begin
     id 28
     name rhand
     direction -1 -4.48977e-011 -2.97966e-026   
     length 0.772522   
     axis 1.90115e-014 -90 -90   XYZ
    dof rx rz
    limits (-90.0 90.0)
           (-45.0 45.0)
  end
  begin
     id 29
     name rfingers
     direction -1 -4.49135e-011 -5.96389e-026   
     length 0.622827   
     axis 3.80223e-014 -90 -90   XYZ
    dof rx
    limits (0.0 90.0)
  end
  begin
     id 30
     name rthumb
     direction -0.707107 -6.34969e-011 0.707107   
     length 0.894259   
     axis -90 -45 3.84942e-014   XYZ
    dof rx rz
    limits (-45.0 45.0)
           (-45.0 45.0)
  end
:hierarchy
  begin
    root lhipjoint rhipjoint lowerback
    lhipjoint lfemur
    lfemur ltibia
    ltibia lfoot
    lfoot ltoes
    rhipjoint rfemur
    rfemur rtibia
    rtibia rfoot
    rfoot rtoes
    lowerback upperback
    upperback thorax
    thorax lowerneck lclavicle rclavicle
    lowerneck upperneck
    upperneck head
    lclavicle lhumerus
    lhumerus lradius
    lradius lwrist
    lwrist lhand lthumb
    lhand lfingers
    rclavicle rhumerus
    rhumerus rradius
    rradius rwrist
    rwrist rhand rthumb
    rhand rfingers
  end

#!OML:ASF F:\VICON\USERDATA\INSTALL\rory3\rory3.ASF
:FULLY-SPECIFIED
:DEGREES
1
root -14.7371 18.1666 10.1745 3.07446 -14.3873 3.88967
lowerback 12.0672 5.26995 2.81575
upperback 3.46343 7.17547 -3.18786
thorax -2.32143 3.58761 -5.86339
lowerneck -15.5742 10.0518 -7.17836
upperneck 46.0442 18.21 2.53825
head 19.5178 6.24794 6.0067
rclavicle -1.28017e-013 2.24627e-014
rhumerus -30.9612 -1.17557 -85.3238
rradius 32.225
rwrist 2.17175
rhand -14.0443 7.34729
rfingers 7.12502
rthumb 12.0864 -22.2836
lclavicle -1.28017e-013 2.24627e-014
lhumerus -40.3111 8.60458 76.2164
lradius 36.5225
lwrist -2.02922
lhand -18.1263 29.151
lfingers 7.12502
lthumb 8.14847 58.9739
rfemur -20.0572 -9.1221 22.6612
rtibia 24.858
rfoot -5.6798 -13.6567
rtoes 10.5753
lfemur -13.4761 -16.628 -17.851
ltibia 42.8177
lfoot -6.34745 -18.5911
ltoes -24.3499
2
root -14.7118 18.1625 10.1262 3.046 -14.2445 3.7976
lowerback 12.0381 5.3642 2.88349
upperback 3.32837 7.30603 -3.28472
thorax -2.40987 3.64902 -6.0235
lowerneck -15.3548 10.1194 -6.85752
upperneck 46.1234 18.1512 2.6448
head 19.5314 6.29735 5.9866
rclavicle -4.90998e-014 3.18055e-015
rhumerus -31.4168 -2.15898 -85.1172
rradius 33.0069
rwrist 2.3726
rhand -13.8927 7.10203
rfingers 7.12502
rthumb 12.2326 -22.5202
lclavicle -4.90998e-014 3.18055e-015
lhumerus -40.6692 8.79591 75.8142
lradius 36.038
lwrist -2.49316
lhand -17.7374 29.2709
lfingers 7.12502
lthumb 8.52381 59.0789
rfemur -20.1833 -9.22883 22.7334
rtibia 24.8557
rfoot -5.56337 -13.6546
rtoes 10.844
lfemur -12.8476 -16.6033 -17.7423
ltibia 42.9505
lfoot -5.55499 -19.7442
ltoes -25.1743
3
root -14.6852 18.1507 10.0757 2.9525 -14.1272 3.75057
lowerback 11.9962 5.39798 2.81797
upperback 3.32171 7.34194 -3.3135
thorax -2.39426 3.66764 -6.01707
lowerneck -15.4114 10.2123 -6.69573
upperneck 46.1671 18.2797 2.62222
head 19.5922 6.36261 5.98669
rclavicle 1.09332e-014 -1.22253e-014
rhumerus -31.5019 -2.25943 -85.0646
rradius 33.4835
rwrist 1.88725
rhand -14.4338 7.3744
rfingers 7.12502
rthumb 11.7108 -22.2783
lclavicle 1.09332e-014 -1.22253e-014
lhumerus -40.9664 9.22932 75.5244
lradius 35.757
lwrist -2.86128
lhand -17.362 30.2513
lfingers 7.12502
lthumb 8.88607 60.0442
rfemur -20.3752 -9.24112 22.7306
rtibia 25.0863
rfoot -5.61763 -13.7036
rtoes 11.1591
lfemur -12.0404 -16.4407 -17.7758
ltibia 42.9044
lfoot -5.58622 -20.8465
ltoes -28.2769
4
root -14.6552 18.1343 10.0233 2.8501 -13.9969 3.80081
lowerback 11.9215 5.39586 2.63645
upperback 3.38957 7.31739 -3.30221
thorax -2.31041 3.65877 -5.88845
lowerneck -15.5487 10.2881 -6.81049
upperneck 45.9648 18.4924 2.48378
head 19.4922 6.42309 5.96627
rclavicle 3.18304e-014 1.49089e-014
rhumerus -31.4533 -1.92544 -84.9901
rradius 34.0804
rwrist 1.31951
rhand -15.1935 8.04888
rfingers 7.12502
rthumb 10.9781 -21.6441
lclavicle 3.18304e-014 1.49089e-014
lhumerus -41.1251 9.93366 75.3049
lradius 35.3537
lwrist -3.23861
lhand -17.3564 30.1691
lfingers 7.12502
lthumb 8.89143 59.9617
rfemur -20.5619 -9.20009 22.5992
rtibia 25.2089
rfoot -5.53846 -13.8106
rtoes 11.6645
lfemur -11.2264 -16.2101 -17.9347
ltibia 42.8355
lfoot -5.57403 -21.9743
ltoes -29.6805
5
root -14.6263 18.1292 9.97101 2.79184 -13.7991 3.75441
lowerback 11.8771 5.3876 2.58274
upperback 3.39265 7.30045 -3.29444
thorax -2.29302 3.65085 -5.84335
lowerneck -15.5665 10.3162 -6.94582
upperneck 45.7091 18.5724 2.4197
head 19.3153 6.45325 5.94105
rclavicle -6.71892e-014 5.397e-014
rhumerus -31.4828 -1.93864 -84.8698
rradius 34.6017
rwrist 1.15457
rhand -15.0557 7.91312
rfingers 7.12502
rthumb 11.111 -21.7727
lclavicle -6.71892e-014 5.397e-014
lhumerus -41.3362 10.8239 74.9204
lradius 34.8282
lwrist -3.91771
lhand -17.2037 29.5086
lfingers 7.12502
lthumb 9.03883 59.295
rfemur -20.7148 -9.21851 22.5882
rtibia 25.3046
rfoot -5.49893 -13.9726
rtoes 12.3722
lfemur -10.4906 -16.1742 -17.9196
ltibia 42.7072
lfoot -4.31203 -23.2062
ltoes -27.8681
6
root -14.5963 18.1284 9.91815 2.72345 -13.6278 3.74766
lowerback 11.7798 5.42341 2.54432
upperback 3.3888 7.34163 -3.35895
thorax -2.23548 3.67401 -5.88299
lowerneck -15.6399 10.336 -6.9568
upperneck 45.7995 18.5148 2.68707
head 19.3385 6.45974 6.06796
rclavicle 7.70291e-014 -2.88238e-014
rhumerus -31.4569 -2.41989 -84.7323
rradius 34.8841
rwrist 1.13363
rhand -14.6494 7.75258
rfingers 7.12502
rthumb 11.5029 -21.9118
lclavicle 7.70291e-014 -2.88238e-014
lhumerus -41.5242 11.3589 74.56
lradius 34.3659
lwrist -4.50423
lhand -17.009 29.3472
lfingers 7.12502
lthumb 9.22666 59.1253
rfemur -20.8428 -9.40109 22.5565
rtibia 25.3391
rfoot -5.46528 -13.9513
rtoes 12.7753
lfemur -9.79995 -16.222 -17.9298
ltibia 42.5378
lfoot -2.57325 -24.3085
ltoes -25.9728
7
root -14.5643 18.124 9.86098 2.67078 -13.5731 3.67255
lowerback 11.6806 5.48737 2.58333
upperback 3.38211 7.42978 -3.40651
thorax -2.16662 3.72101 -5.95247
lowerneck -15.7448 10.4067 -6.92378
upperneck 46.0493 18.536 3.0047
head 19.4658 6.49276 6.24668
rclavicle -4.2366e-014 5.61567e-015
rhumerus -31.3821 -2.83333 -84.6036
rradius 35.1127
rwrist 0.820023
rhand -14.8445 8.31189
rfingers 7.12502
rthumb 11.3147 -21.3629
lclavicle -4.2366e-014 5.61567e-015
lhumerus -41.7295 11.6785 74.3243
lradius 33.9821
lwrist -4.82165
lhand -17.1307 28.8483
lfingers 7.12502
lthumb 9.1092 58.6316
rfemur -20.9602 -9.45771 22.5987
rtibia 25.2707
rfoot -5.25122 -13.9233
rtoes 12.7832
lfemur -9.10985 -16.0718 -17.8502
ltibia 42.3218
lfoot -0.623536 -25.3374
ltoes -23.4381
8
root -14.5307 18.1206 9.80498 2.57802 -13.5263 3.62127
lowerback 11.6249 5.52143 2.55859
upperback 3.36896 7.47227 -3.40229
thorax -2.14899 3.74261 -5.93327
lowerneck -15.745 10.4953 -6.92486
upperneck 46.0472 18.6584 3.05736
head 19.4412 6.5519 6.28821
rclavicle -5.48273e-014 1.36167e-014
rhumerus -31.2872 -2.85869 -84.5107
rradius 35.3235
rwrist 0.404509
rhand -15.041 8.54526
rfingers 7.12502
rthumb 11.1252 -21.1398
lclavicle -5.48273e-014 1.36167e-014
lhumerus -42.0459 12.0026 74.204
lradius 33.7315
lwrist -4.94504
lhand -17.1944 28.6716
lfingers 7.12502
lthumb 9.04774 58.4575
rfemur -21.0199 -9.45802 22.5895
rtibia 25.1955
rfoot -5.03333 -13.9123
rtoes 12.9188
lfemur -8.35627 -15.9516 -17.8207
ltibia 42.0299
lfoot 1.22426 -26.0502
ltoes -20.0015
9
root -14.4942 18.1206 9.75368 2.47919 -13.4581 3.6735
lowerback 11.4877 5.5274 2.44283
upperback 3.36122 7.46586 -3.43511
thorax -2.09389 3.74115 -5.88723
lowerneck -15.8365 10.575 -6.98098
upperneck 46.1727 18.7723 3.21728
head 19.4971 6.59602 6.40825
rclavicle -2.6575e-014 8.84592e-015
rhumerus -31.316 -2.58852 -84.5243
rradius 35.7069
rwrist 0.0529997
rhand -15.124 8.23195
rfingers 7.12502
rthumb 11.0451 -21.4574
lclavicle -2.6575e-014 8.84592e-015
lhumerus -42.2348 12.3479 74.0788
lradius 33.3249
lwrist -5.05626
lhand -17.1603 28.924
lfingers 7.12502
lthumb 9.08068 58.7086
rfemur -21.1002 -9.65572 22.4705
rtibia 25.1317
rfoot -4.77735 -13.7174
rtoes 12.947
lfemur -7.56945 -15.9533 -17.9538
ltibia 41.6263
lfoot 3.08107 -26.5922
ltoes -15.8572
